<?xml version="1.0" encoding="UTF-8"?>
<svg id="_Слой_1" data-name="Слой 1" xmlns="http://www.w3.org/2000/svg" xmlns:xlink="http://www.w3.org/1999/xlink" viewBox="0 0 301.6589966 298.1520081">
  <defs>
    <style>
      .cls-1 {
        fill: #fff;
        fill-rule: evenodd;
      }

      .cls-2 {
        fill: none;
      }

      .cls-3 {
        clip-path: url(#clippath);
      }
    </style>
    <clipPath id="clippath">
      <rect class="cls-2" width="301.6589966" height="298.1520081"/>
    </clipPath>
  </defs>
  <g class="cls-3">
    <path class="cls-1" d="M226.2448883,216.1658096h-92.3580017l8.0810089-13.9980011-41.1640015,41.1640015v-27.1660004h-25.3889999V77.168808h150.8299942v138.9970016ZM203.9039001,107.0048218h-14.6660156l1.5040131,57.4389954h11.6579895l1.5040131-57.4389954ZM189.8078918,186.3298111h13.5269928v-13.5279999h-13.5269928v13.5279999ZM139.7008972,106.0168152c-26.465004,0-39.8850021,20.3330078-39.8850021,40.651001,0,20.3190002,13.4199982,40.6499939,39.8850021,40.6499939,26.4639893,0,39.5829926-20.3369904,39.5829926-40.6499939,0-20.3119965-13.1190033-40.651001-39.5829926-40.651001M139.7008972,120.7228088c-16.1170044,0-24.3920059,12.980011-24.3920059,25.9450073,0,12.9660034,8.2750015,25.9459915,24.3920059,25.9459915,16.1159973,0,24.072998-12.9799881,24.072998-25.9459915,0-12.9649963-7.9570007-25.9450073-24.072998-25.9450073"/>
  </g>
</svg>